<?xml version="1.0" encoding="UTF-8" standalone="no"?>
<!-- Created with Inkscape (http://www.inkscape.org/) -->

<svg
   version="1.1"
   id="svg1"
   width="1019.7733"
   height="1019.774"
   viewBox="0 0 1019.7733 1019.774"
   xmlns="http://www.w3.org/2000/svg"
   xmlns:svg="http://www.w3.org/2000/svg">
  <defs
     id="defs1" />
  <g
     id="g1"
     transform="translate(-1.6907616,-27.052155)">
    <g
       id="g2"
       style="display:inline">
      <path
         id="path8"
         style="display:inline;fill:#eeaf90;fill-opacity:1"
         d="M 501.3418,54.179688 C 406.07352,51.732593 312.6302,88.732432 267.15234,161.79883 c -4.98679,8.01197 -6.47529,9.58143 -13.56054,14.30273 -62.8246,41.86357 -73.67928,101.81412 -60.62891,265.33985 2.10666,26.3973 2.21281,25.1835 -2.30469,26.16015 -26.15743,5.65505 -42.28516,48.78115 -33.33008,94.89844 3.0461,15.68694 4.22217,28.84925 9.35352,44.5 3.13897,9.57396 8.78388,29.36191 10.32617,37.77539 8.48697,46.29773 7.91779,35.54285 36.16602,50.26367 l 15.96289,8.31836 10.06055,44.3711 c 12.91379,56.95595 19.22658,81.31564 40.68945,113.41992 3.96637,5.93292 9.39866,10.27675 11.52148,13.82812 6.53716,10.93635 -9.07296,11.08844 -12.51367,15.22266 -3.16241,3.79984 -11.52328,13.22645 -18.59961,20.07812 -15.06328,14.58505 -15.44817,16.83839 -31.61914,23.97657 -9.3672,4.13487 -24.51445,8.69105 -34.68945,14.04687 -10.175,5.35582 -41.35274,28.70916 -71.05274,43.95508 -62.838837,32.25714 -69.503177,33.72364 -79.990231,41.52934 -4.619832,3.4386 -9.496267,8.0198 -14.308593,13.041 H 1004.3691 c -19.15574,-17.5771 -57.71722,-38.6254 -150.03316,-84.57229 l -93,-46.28907 -4.16797,-6.4082 c -2.29224,-3.52448 -9.65761,-12.9332 -16.36719,-20.9082 -6.70958,-7.975 -13.32019,-15.9537 -14.68945,-17.73242 l -2.48828,-3.23438 4.97656,-7.76562 c 20.08326,-31.33753 37.25547,-83.01734 45.25391,-137.99805 1.16018,-7.975 2.31419,-15.46352 2.56445,-16.64063 0.36637,-1.72326 1.85209,-2.48223 7.62305,-3.89648 28.40444,-6.96086 39.6629,-23.15327 48.75195,-70.11914 1.61328,-8.3363 4.13994,-12.70586 6.60547,-20.61133 23.59107,-75.64249 12.48124,-143.8125 -23.4375,-143.8125 -2.85949,0 -2.93409,-1.00072 -1.38672,-18.60156 C 828.62628,288.39922 800.80039,190.014 724.40625,147.74609 718.48444,144.46963 712.51315,139.89936 705.23438,133.07031 650.6406,81.849612 575.43934,56.082984 501.3418,54.179688 Z M 405.24023,765.43555 c 3.29504,-0.31695 8.63811,0.42023 16.08594,2.12109 52.23392,11.92867 113.23944,12.25554 169.35547,0.99024 17.77571,-3.56847 21.22232,-1.28135 19.69727,7.29296 -5.32911,29.96185 -47.32592,44.03567 -79.87891,47.98438 -51.2034,6.21102 -114.69015,-5.65889 -129.05664,-54.18164 -0.74553,-2.51803 0.50184,-3.89009 3.79687,-4.20703 z" />
      <path
         id="path7"
         style="display:inline;fill:#8cacc6"
         d="m 725.08203,872.16406 c -20.69466,-1.94763 -47.27573,111.60786 -217.64062,141.75194 -73.59936,-16.65121 -35.35898,-0.3564 -104.69336,-31.35155 -6.69196,-2.99156 -12.84199,-6.01644 -18.58203,-9.05468 28.93814,20.60726 42.7399,28.49363 69.73437,36.27543 67.9125,19.5775 121.64923,8.22 180.27149,-39.70708 7.66531,-6.26683 19.83876,-16.95024 23.41796,-14.34179 3.36374,2.45143 -15.49542,29.30456 -24.6582,39.56055 -14.75869,16.51952 -33.13396,30.66942 -63.05469,51.52932 h 431.39845 c -14.78214,-15.6356 -46.73569,-32.1773 -143.3379,-80.7305 L 777.82422,925.82812 764.4668,912.66406 c -4.2012,0.16193 -27.96268,-35.51558 -37.39649,-39.94531 -0.65995,-0.30989 -1.32071,-0.49186 -1.98828,-0.55469 z M 384.16602,973.50977 C 374.93596,966.93691 364.334,959.20156 351.05469,949.5918 l -12.30078,-8.18164 c 10.7222,10.46253 25.12911,21.36369 45.41211,32.09961 z m -45.41211,-32.09961 c -36.34421,-35.46405 -28.40858,-65.55186 -46.30274,-64.21875 -23.34449,1.73915 -16.27039,20.4802 -23.56445,27.09961 l -19.3457,17.55664 -14.37305,12.16015 c -4.7522,9.06962 -25.55938,12.25356 -35.73438,17.60938 -10.175,5.35582 -44.94453,22.21306 -74.64453,37.45898 -62.83884,32.25713 -72.147709,33.70213 -82.634763,41.50783 -5.449981,4.0565 -11.015719,9.921 -16.396485,16.2422 H 414.61914 c -41.81693,-28.5211 -66.47284,-53.41072 -73.66992,-86.1719 l -4.57617,-20.82618 z" />
      <path
         id="path4"
         style="display:inline;fill:#263138"
         d="m 728.88477,874.79492 c -4.58787,0.86401 -10.5351,6.10861 -19.3711,17.99805 -38.0567,51.20791 -162.15048,122.17733 -211.30078,126.21873 -49.15029,4.0414 -157.77817,-63.23789 -184.5293,-113.39061 -28.77136,-53.94023 -32.38001,0.38151 -72.77929,21.53125 C 156.16773,971.51343 66.84183,1013.1715 26.082031,1046.8262 H 311.43164 c -4.44882,-50.59709 -7.50816,-110.29549 -5.10937,-127.0762 1.68339,-11.77621 8.23902,-3.05322 15.5957,20.75 15.54082,50.28381 34.56755,79.8855 69.79687,106.3262 h 25.60547 c -38.52756,-25.9368 -59.71126,-51.15327 -73.95508,-88.03518 -17.51387,-45.34913 21.31863,31.64675 105.63477,56.06638 71.29914,20.6498 143.83796,1.6146 200.03516,-52.49217 11.98634,-11.54049 5.30087,1.38252 -11.45118,22.13477 -17.46675,21.6376 -36.41697,38.3143 -70.40234,62.3262 h 24.55859 c 43.80082,-32.7223 62.65432,-55.56029 90.37696,-104.8262 7.54291,-13.40452 22.27146,-35.01741 25.36719,-37.22461 5.19763,-3.70583 -10.52978,61.79086 -33.23438,142.05081 h 327.6973 l -17.50785,-13.3496 C 970.42172,1022.7887 934.74304,1002.612 774.80664,924.06641 744.18189,909.02643 742.64836,872.20289 728.88477,874.79492 Z" />
      <path
         style="display:inline;fill:#705c50;fill-opacity:1"
         d="m 195.49537,467.07719 c 6.35224,-1.58429 -1.73984,-1.72028 -4.00186,-30.80828 -12.59692,-161.98711 2.02712,-219.20501 63.19757,-261.44403 8.56574,-5.91476 10.3768,-7.69983 14.5,-14.29185 81.92501,-130.978816 315.38684,-140.961173 439.04447,-22.65585 5.439,5.20358 11.92391,10.35072 15,11.90566 75.43321,38.13082 104.96751,128.40817 94.38889,283.49427 -0.91915,13.475 -5.48603,39.20396 -27.6942,47.40011 -22.29782,-12.17252 -25.0096,-48.48804 -30.50122,-65.17158 l -5.75175,-17.4738 -0.75363,-29.45995 c -0.79616,-31.12216 -1.61526,-36.60953 -4.00205,-51.00821 -8.35971,-50.43131 -52.76924,-88.6785 -96.51227,-84.29603 l -10.14775,1.01667 -8.09477,6.40085 C 580.69291,282.96906 492.42851,284.4308 394.25711,245.377 l -18.64736,-7.41815 -8.2422,1.9686 c -24.47061,5.84466 -49.06846,6.37083 -68.58705,-0.37968 -7.39331,-2.55698 -13.75081,-4.30813 -14.12777,-3.89144 -11.12696,12.29958 -23.71349,66.37686 -27.9572,120.11645 -1.65293,20.93163 -2.67263,28.65278 -4.95248,37.5 -1.57904,6.12764 -11.06584,21.81502 -13.56478,31.51996 -4.46532,17.3416 -7.62914,36.3476 -9.72745,56.2104 z"
         id="path6" />
      <path
         d="m 783.50284,710.45979 c -0.23645,1.1221 -1.37785,8.56518 -2.53644,16.54018 -8.09469,55.71855 -30.44405,92.52736 -48.27194,123.84679 -37.86374,66.51773 -31.7551,47.20901 -74.45352,90.66089 -80.83272,82.25915 -171.49627,99.75595 -273.55364,31.71416 -25.65891,-17.10683 -67.67628,-48.98361 -104.0431,-111.40836 -20.63163,-35.41483 -40.60166,-79.8767 -48.08193,-138.92298 -1.90547,-15.04105 -10.01359,-20.54494 -8.44559,-25.93144 l 20.66938,48.34047 c 0.9749,1.65 10.20786,15.25047 11.68807,20.20047 1.48021,4.95 3.31254,9.64239 4.07184,10.42754 1.43073,1.47944 1.50975,1.38317 3.01858,-3.67754 0.20497,-0.6875 0.85093,-1.25 1.43545,-1.25 0.58452,0 1.22715,0.5625 1.42805,1.25 7.51677,25.72238 15.27074,42.4251 17.06734,36.76452 1.09158,-3.43927 3.18438,-2.24469 6.5442,3.73548 8.31138,14.79349 22.87125,31.18659 34.63801,38.99928 6.90638,4.58558 6.83189,4.7526 5.34185,-11.97785 -9.24996,-103.86017 -1.73379,-128.00637 47.93086,-153.98094 8.20432,-4.29086 8.02387,-3.94506 -2.45031,4.69558 -17.75954,14.65067 -35.59968,33.96762 -23.197,25.11726 9.0527,-6.45988 17.205,-9.91943 31.71818,-13.4601 24.50959,-5.97942 63.16852,-26.89136 80.99673,-11.87148 47.40746,39.93976 66.66252,5.57269 89.3317,0.0421 20.96455,-5.11469 29.40113,-4.35332 45.26757,4.76293 26.94428,15.48116 48.45869,12.2623 61.66251,25.03295 10.17937,9.84543 10.31468,9.94238 8.2207,5.89026 -4.16068,-8.05143 -20.3197,-25.65738 -32.50039,-35.41056 -5.06501,-4.05561 -1.19866,-2.47223 11.14765,4.56525 31.65769,18.0451 39.84521,48.25217 31.26395,115.34531 -0.28138,2.2 -1.39967,12.1 -2.48508,22 -1.08541,9.9 -2.22366,19.2375 -2.52945,20.75 -0.81303,4.02142 1.05663,3.51663 8.95929,-2.41891 10.17563,-7.64272 22.71313,-22.95751 31.99385,-39.08109 2.953,-5.1303 4.52961,-5.92558 5.37073,-2.70911 1.21333,4.63977 9.68177,-9.19752 16.39605,-26.79089 3.16995,-8.30616 4.62916,-9.93672 5.59326,-6.25 1.12876,4.31639 3.16808,1.62204 6.62276,-8.75 2.75655,-8.27602 3.98868,-10.75047 5.35386,-10.75203 M 536.5,938.3089 c 72.07461,-11.32998 104.69719,-54.4278 110.47056,-145.94305 2.85181,-45.20487 -2.2503,-48.99503 -58.47056,-43.43553 -11.55,1.14215 -28.65,2.83401 -38,3.75967 -20.94131,2.07323 -66.76335,2.32164 -87.5,0.47437 -7.975,-0.71044 -27.99162,-2.61306 -44.48138,-4.22805 -54.15317,-5.3037 -57.54689,-3.41527 -57.49886,31.99516 0.0629,46.36141 8.87585,84.18813 25.29461,108.5685 24.98149,37.09526 90.0919,58.25554 150.18563,48.80893 z m -47.77129,-54.82052 c -21.58055,-3.62821 -39.74739,-12.28804 -48.97871,-23.34731 -4.126,-4.94302 -3.41355,-5.33324 4,-2.19085 11.38432,4.82548 21.20677,7.45103 24.08641,6.43832 1.56894,-0.55176 6.97666,-0.43369 14.10407,0.30796 14.42008,1.5005 27.10164,1.57055 42.55952,0.2351 6.6,-0.57019 15.15,-1.18478 19,-1.36575 6.08555,-0.28606 20.58633,-4.31705 28.75,-7.99207 5.92716,-2.6682 -2.76283,8.3297 -11.34264,14.35507 -17.96849,12.61877 -46.21351,17.9249 -72.17865,13.55953 z"
         style="display:inline;fill:#705c50;fill-opacity:1"
         id="path1-3" />
      <path
         style="display:inline;fill:#ba9b8b;fill-opacity:1"
         d="m 203.29042,469.06867 c -8.47711,13.90485 5.39254,-18.99575 9.19449,-35.56867 1.38791,-6.05 2.95532,-12.575 3.48314,-14.5 3.16449,-11.54126 7.21932,-42.02202 8.11478,-61 2.91002,-61.67371 8.15728,-86.27421 23.03627,-108 8.71073,-12.7191 -3.1674,-4.87 -16.64641,11 -6.07468,7.15223 -3.45414,-5.01606 3.7244,-17.29401 1.5416,-2.6367 2.80291,-5.13416 2.80291,-5.54991 0,-4.09464 17.42469,-21.82764 26.96381,-27.44091 4.29494,-2.52735 6.18287,-4.49875 8.82498,-9.21517 18.35485,-32.76513 70.52318,-66.02961 111.32555,-70.98534 20.66889,-2.51038 20.62166,-1.72443 -0.78712,13.09786 -6.68519,4.62847 -8.12092,5.74516 -17.85508,13.88748 -2.6301,2.2 -5.13981,4.14251 -5.57714,4.31669 -1.34503,0.5357 -23.895,25.26739 -23.895,26.20685 0,0.48539 2.77842,-0.96296 6.17427,-3.21854 12.14551,-8.06727 40.73943,-23.56857 51.82573,-28.0957 2.475,-1.01067 7.425,-3.21547 11,-4.89955 8.81811,-4.15396 27.46886,-11.32544 34.63824,-13.31888 C 485.5762,125.71781 528.75799,121.6342 557,127.39221 c 25.89621,5.27974 38,8.93523 38,11.47644 0,0.44951 -8.87414,1.1246 -19.72032,1.50019 -10.84617,0.37559 -21.30867,1.09216 -23.25,1.59238 -1.94132,0.50021 -6.90468,1.43409 -11.02968,2.07529 -4.125,0.64119 -9.975,1.78496 -13,2.54172 -3.025,0.75675 -10.37432,2.54428 -16.33183,3.97229 -19.63263,4.70593 -48.77997,14.67101 -47.2849,16.16608 0.22964,0.22965 3.72486,-0.0348 7.76713,-0.58765 22.74514,-3.11082 31.60915,-2.47645 21.08926,1.50927 -2.60681,0.98766 -10.13966,4.57476 -16.73966,7.97133 -6.6,3.39658 -16.725,8.1969 -22.5,10.66739 -5.775,2.47049 -14.63164,6.56823 -19.68142,9.10611 -5.04979,2.53787 -10.44979,5.09654 -12,5.68595 -5.24542,1.99434 -0.31677,2.80193 11.69295,1.91596 6.31866,-0.46613 18.68847,-1.11456 27.48847,-1.44096 18.38457,-0.68189 25.01918,-1.17801 35.5,-2.65462 25.20179,-3.5506 35.5,-4.16536 35.5,-2.11921 0,1.24211 -19.70582,10.85173 -27.21221,13.27013 -2.08328,0.67119 -4.23779,1.53571 -4.78779,1.92114 -2.70232,1.89379 -22.9041,8.11706 -34.29551,10.56493 -4.56254,0.98043 -7.93754,2.09961 -7.5,2.48705 3.34987,2.96641 48.67869,5.15709 63.41687,3.06485 11.43117,-1.62278 24.28354,-5.09818 52.87864,-14.29889 25.47465,-8.19668 41.20685,-12.16101 55,-13.85935 11.73513,-1.44494 12.63695,-2.15093 5.27821,-4.13207 -17.56277,-4.72829 -47.28764,-9.57744 -69.08008,-11.26935 -22.2696,-1.72895 -24.77178,-3.80157 -8.94813,-7.41197 5.6375,-1.28628 13.175,-3.18385 16.75,-4.21683 27.98094,-8.08492 69.01072,-5.86377 95.52524,5.17127 39.71687,16.52972 64.76824,47.08006 70.33752,84.13637 L 678.34284,231.9107 c 0,0 -31.18579,-5.60579 -58.49961,12.82102 -27.31381,18.42681 -73.6901,28.6703 -125.99739,23.89549 -33.74584,-3.08045 -47.59625,-4.02874 -84.08265,-16.46272 l -30.98261,-18.04127 -27.99005,6.68452 c -25.14652,6.00544 -31.04948,0.8562 -40.77959,-1.96147 -15.98793,-4.62984 -25.36153,-3.57011 -31.59285,10.38063 -12.18287,27.27514 -18.64052,59.30659 -22.72393,110.35754 -1.66774,20.85025 -3.65215,31.57066 -5.9042,40.30895 -10.16344,39.43567 -10.65,46.78307 -12.51767,57.07117 l -19.27287,22.96668 M 454.16246,108.39301 c 0.24819,-1.29002 4.86269,-4.18573 14.48654,-9.090671 14.98224,-7.635921 15.85533,-8.433061 8.49411,-7.755273 C 474.5894,91.782199 466.425,92.449488 459,93.029929 c -7.425,0.58044 -19.125,2.153547 -26,3.495793 -25.09486,4.899408 -28.54574,5.618868 -31,6.463058 -9.93373,3.41689 -13.16155,1.27783 -5.75,-3.810489 16.0936,-11.048883 44.90525,-20.388838 70.06445,-22.712993 2.30205,-0.212658 6.66055,-0.642065 9.68555,-0.954237 33.73941,-3.481818 67.93383,1.231619 89.77672,12.375028 6.71564,3.426068 5.3691,3.80758 -15.52672,4.399137 -24.61247,0.696775 -40.20274,3.24409 -71.83658,11.737474 -6.09762,1.63716 -13.07262,3.39286 -15.5,3.90157 -2.42738,0.5087 -5.47131,1.2482 -6.76429,1.64333 -1.95163,0.59641 -2.28901,0.39694 -1.98667,-1.17459 z"
         id="path5" />
      <path
         d="m 435.5,457.43233 c -8.8,-1.81138 -22.3,-4.01536 -30,-4.89776 -7.7,-0.88239 -17.6,-2.07947 -22,-2.66018 -29.59671,-3.90618 -56.11931,-2.11289 -82.72585,5.59339 C 282.6193,460.72612 284,460.50454 284,458.15972 c 0,-25.69984 41.56664,-46.52995 87.94657,-44.07229 57.01893,3.02141 84.29241,16.62205 82.85007,41.31536 -0.36538,6.25528 0.69237,6.14403 -19.29664,2.02954 z M 555,456.16918 c 0,-24.95296 25.54912,-38.14745 81.81722,-42.25338 45.14458,-3.29425 72.47013,8.66488 84.22937,36.86328 3.84409,9.21805 3.58678,9.51126 -5.7898,6.59778 -41.73219,-12.96698 -77.02174,-12.8063 -142.75679,0.65002 -5.5,1.12588 -11.6875,2.31467 -13.75,2.64176 l -3.75,0.5947 z"
         style="display:inline;fill:#aa836f;fill-opacity:1"
         id="path1-5" />
      <path
         id="path12"
         style="display:inline;fill:#ffffff"
         d="m 623.46316,508.65426 c -7.00332,-1.35057 -17.9474,17.8841 1.14363,18.29541 8.34664,0.17983 11.91875,-15.77638 -1.14363,-18.29541 z m -258.72982,3.69559 c -5.28013,5.30088 -2.58471,8.32854 0.86159,13.2108 3.4463,4.88226 14.16041,4.83911 16.36991,-2.01034 2.87192,-8.90293 0.43762,-10.54427 -4.59505,-14.07239 -6.36833,-4.46448 -7.80555,-1.97795 -12.63645,2.87193 z m 41.20616,257.19936 c -5.41304,8.55428 5.78609,21.01263 24.36246,34.10745 18.57638,13.09482 50.5521,19.18544 71.86925,19.18544 21.31716,0 70.65114,-5.78609 81.61424,-15.8356 10.96311,-10.04952 31.98913,-29.82353 26.79871,-37.76181 -5.17702,-7.9178 -12.79029,-1.52266 -26.18965,1.82718 -19.89989,4.97498 -45.98413,7.0042 -59.68802,8.22233 -13.70388,1.21812 -51.77023,0.30453 -58.77443,-1.52265 -7.00421,-1.82719 -57.10686,-12.78264 -59.99256,-8.22234 z" />
      <path
         d="m 793.35077,521.796 c -1.15897,15.01194 2.55729,9.09072 5.521,2.58608 10.39496,-22.81444 25.53139,-24.31801 30.65782,-3.04539 2.83678,11.77151 2.78693,15.10375 -0.14465,9.66872 -3.9037,-7.2373 -9.74072,-12.12595 -13.08594,-10.9598 C 806.91049,523.31847 788.9093,553 796.31291,553 c 10.73331,0 19.75162,34.26669 13.88226,52.74814 C 807.59755,613.92753 794,633.34847 794,628.87917 c 0,-0.28969 1.16252,-4.31852 2.58337,-8.95294 3.48881,-11.37952 4.08293,-22.52609 1.96744,-36.912 -2.629,-17.87787 -6.51905,-15.92263 -7.88879,8.07162 m -570.30359,43.17197 -6.99665,-7.13989 c -19.41727,-19.81478 -21.10114,-53.37857 -3.32763,-71.15208 6.70498,-6.70498 6.06611,-9.63723 -5.38829,-24.73112 -11.00793,-14.50555 -15.63917,-15.23847 -23.30786,-3.68859 -4.596,6.92207 -4.89101,6.53318 -2.81622,-3.7124 4.79428,-23.67468 20.26209,-21.67297 37.34728,-1.81295 m 3.94745,88.09527 c 0.0334,-8.81461 -0.76729,-30.21806 -1.38613,-30.21806 -3.71059,0 -4.31745,33.28622 -0.79107,43.39039 2.67037,7.65143 2.15449,-7.18027 2.1772,-13.17233 z"
         style="display:inline;fill:#89602c"
         id="path1" />
      <path
         id="path3"
         style="display:inline;fill:#201c08"
         d="M 504.05273,50.085938 C 406.59039,47.208503 310.17645,83.635894 264.59766,156.37109 c -5.13066,8.18758 -6.31153,9.38024 -15.32813,15.46485 -42.54403,28.70968 -65.02565,78.81547 -67.12109,149.59961 -0.89551,30.25042 0.85968,70.7731 5.31054,122.67968 1.60964,18.77182 1.40321,20.67275 -2.32812,21.46485 -38.01364,8.06969 -46.61579,65.81441 -21.29102,142.91992 2.83002,8.61646 6.06988,21.32555 7.61328,29.86328 8.12636,44.95276 18.20971,59.51754 46.15235,66.66406 9.52322,2.43563 8.23712,0.39341 10.4707,16.64454 8.72401,63.47447 22.54271,106.08273 45.59375,140.58398 9.21171,13.78747 9.47593,12.10487 -4.46484,28.43164 -6.48689,7.59714 -14.17197,16.84348 -17.07813,20.54688 -5.06558,6.45519 -5.97223,7.09089 -21.95507,15.39843 -9.16947,4.76609 -24.54688,12.81614 -34.17188,17.88867 -9.625,5.07254 -42.95327,22.29401 -74.0625,38.26954 -66.370545,34.08328 -89.10931,46.85678 -102.361328,64.03518 H 45.125 c 8.164676,-8.2194 33.403491,-21.5858 101.875,-56.82229 19.525,-10.04786 37.975,-19.61133 41,-21.25196 41.45629,-22.48402 40.14576,-25.30361 11.16016,24.01367 C 182.82161,1020.5648 178,1030.3043 178,1035.502 c 0,3.8656 2.92595,6.176 11.9082,11.3242 h 36.5625 c -3.85621,-2.2322 -11.40782,-6.3147 -16.81054,-9.086 -12.54038,-6.4325 -12.73275,-3.7744 2.15039,-29.7754 34.87149,-60.92077 47.57257,-80.61014 64.88867,-100.5898 13.41424,-15.47761 14.85778,-16.2131 13.9668,-7.125 -2.81199,28.68243 -3.35596,82.47564 -1.04883,103.8398 l 0.60351,5.5918 -23.83398,17.9082 c -12.20609,9.1714 -22.72237,16.8612 -26.20703,19.2364 h 24.9414 C 284.13153,1032.3769 291,1027.6729 291,1030.2793 c 0,0.7039 0.64564,6.6664 1.43555,13.25 0.0869,0.7242 0.28755,2.4196 0.39257,3.2969 h 17.35743 C 303.50361,981.29047 302.11409,912 308.30664,912 c 3.04093,0 9.67385,11.1175 12.76563,21.39844 16.78384,55.81032 35.30801,85.60826 72.83203,113.42776 h 22.73242 c -0.0491,-0.032 -0.0878,-0.058 -0.13672,-0.09 -38.42565,-25.3086 -61.7214,-53.8712 -75.06836,-92.03903 -3.96292,-11.33263 -2.55556,-11.76602 7.74805,-2.38477 100.46323,91.47 217.00677,94.8767 300.27343,8.77539 8.22669,-8.50675 8.76785,-4.04007 0.88282,7.28125 -20.0376,28.76991 -40.09256,47.77386 -82.80469,78.45706 h 22.11914 c 45.5387,-33.7648 63.33149,-55.95165 95.38477,-112.32425 8.69069,-15.28443 22.16599,-33.1141 24.11718,-31.9082 3.95318,2.4432 -10.74859,64.39488 -33.39257,144.23245 h 17.01953 c 4.33127,-14.1311 7.75691,-23.8338 8.8457,-23.416 0.79536,0.3052 7.61717,5.1475 15.16016,10.7617 4.18061,3.1116 10.81574,8.0402 17.02343,12.6543 h 57.87305 c 29.11594,-18.6864 27.59524,-16.5888 19.42188,-37.9297 -5.24,-13.68191 -22.60676,-57.68649 -25.13672,-63.69338 C 784.74166,942.29428 784.75498,942 786.10352,942 c 0.60685,0 27.49435,13.09301 59.75,29.0957 32.25566,16.0027 69.65068,34.4623 83.0996,41.0215 30.33717,14.7959 46.58184,23.95 53.61915,30.2129 2.27329,2.0231 3.47735,3.2855 4.22851,4.4961 h 24.75782 C 997.44568,1027.218 982.62163,1019.5 869.5,963.08789 l -98,-48.87109 -4.10547,-6.35938 c -2.25754,-3.49691 -10.92004,-14.52414 -19.25,-24.50586 C 739.81457,873.36984 733,864.86769 733,864.45898 c 0,-0.40871 2.47303,-4.66206 5.49609,-9.45312 19.56969,-31.01482 33.8234,-76.34599 41.50586,-132.00586 2.25361,-16.3275 2.21742,-16.267 10.88282,-18.11328 26.79736,-5.70954 37.79988,-21.00144 46.58789,-64.74805 2.02537,-10.08224 5.85032,-25.37461 8.50195,-33.98437 23.06803,-74.90137 14.02644,-133.17827 -21.68359,-139.7461 -4.80923,-0.88453 -5.34795,-1.77978 -4.7461,-7.9082 C 835.97762,291.1708 805.9984,187.0307 729,143.97461 722.24514,140.19741 716.73879,136.0267 709.94531,129.54297 656.29483,78.338676 579.85678,52.323942 504.05273,50.085938 Z m -17.78711,16.042968 c 81.37166,-1.536985 162.61462,25.937138 212.7168,75.628904 9.37878,9.30196 13.04322,12.19831 20,15.81055 72.05796,37.41545 103.51168,149.8546 83.34375,297.93164 -1.81871,13.3533 -2.14774,14.05366 -7.82617,16.63672 -5.08548,2.31333 -8.22045,2.35317 -8.88477,0.11328 -0.28546,-0.9625 -1.90503,-8.05 -3.59961,-15.75 -3.92651,-17.84158 -6.06102,-25.47383 -12.30273,-44 l -5.05273,-15 -0.74805,-34 c -0.89687,-40.82983 -1.99402,-49.29228 -8.95899,-69 -23.95311,-67.77654 -86.86368,-90.25823 -156.92382,-56.07812 -13.60477,6.63733 -13.57458,6.89781 0.7207,6.06835 18.22352,-1.0574 13.18786,3.2915 -10.39062,8.97461 -56.00136,13.49796 -111.35975,9.2868 -186.60938,-14.19922 -16.85922,-5.2619 -16.97887,-5.4173 -8.21875,-10.63281 13.84376,-8.24214 6.34634,-8.30164 -33.03125,-0.25976 -30.49225,6.22728 -42.03373,5.86577 -65.86523,-2.06446 -16.27246,-5.41485 -13.82561,-6.48961 -22.06836,9.6875 C 254.37945,271.68962 247.3254,301.06096 243.50195,357 c -1.93015,28.23896 -3.49617,37.54008 -9.49804,56.41602 -6.60499,20.77279 -10.65096,36.27791 -12.5293,48.02148 -2.204,13.77956 -1.83388,13.5324 -11.20899,7.52734 -7.42734,-4.75746 -6.66135,-1.88446 -9.17968,-34.46484 -6.69502,-86.61535 -5.92777,-130.88433 2.86523,-165.30078 10.61568,-41.55056 32.82302,-73.83937 59.31055,-86.23438 6.7211,-3.14518 6.74063,-3.16692 11.35547,-12.30859 C 296.75316,126.8064 340.6554,95.707393 406,77.587891 432.00394,70.377219 459.14174,66.641235 486.26562,66.128906 Z M 656.21875,236.6582 c 21.90095,-1.35265 51.42829,11.64251 67.58984,32.59571 17.55117,22.7548 22.42685,43.53536 24.10938,102.74609 l 0.75391,26.5 5.70507,17.35742 c 7.69789,23.41859 14.92019,54.17943 13.13867,55.96094 -0.93365,0.93365 -6.68063,0.28255 -16.19335,-1.83398 -75.56376,-16.81251 -190.98604,-10.35581 -210.41407,11.77148 -1.62451,1.85022 -4.63152,4.07095 -6.68164,4.93359 -2.99301,1.25937 -8.72604,1.61765 -29.09961,1.81836 l -25.37304,0.25 -5.33594,-4.83203 C 448.25099,460.22884 336.68521,453.01764 261.5,470.16406 c -23.96518,5.46539 -23.35297,5.3802 -24.11719,3.38867 -1.54927,-4.03733 2.58652,-23.70534 15.48438,-73.62695 2.41223,-9.33661 3.39855,-16.68448 5.10351,-38 4.22453,-52.81525 10.39008,-81.89373 23.59961,-111.32031 5.7772,-12.86976 4.55229,-12.45619 20.63086,-6.95313 19.62913,6.71828 38.99045,7.09841 63.92969,1.25782 l 8.63086,-2.02149 13.04101,5.49024 c 99.34462,41.82582 193.58508,39.80801 249.83399,-5.34961 4.82777,-3.87582 11.28171,-5.92021 18.58203,-6.3711 z M 347.83789,473.26953 c 46.05761,-0.61195 95.58303,6.11711 110.0625,18.30078 17.27237,14.53373 4.38805,78.25825 -20.21094,99.95899 -12.08932,10.66496 -27.03767,15.569 -53.18945,17.45312 -21.11957,1.52157 -43.58815,0.47836 -63.91016,-2.96875 C 280.54317,599.22078 270.12794,588.63087 262.55078,547 255.60759,508.85237 260.11655,488.79149 277,482.70703 c 16.81721,-6.06058 43.20333,-9.07033 70.83789,-9.4375 z M 650,473.50781 c 93.50513,0.024 105.53906,9.13379 95.5293,72.31446 -6.93327,43.76219 -17.92967,54.49693 -62.67188,61.1875 C 596.79695,619.8789 557.66098,598.80242 546.35938,533.5 538.07442,485.6283 559.05281,473.48444 650,473.50781 Z m -460.52148,7.45899 c 5.11967,0.23762 10.80443,3.03451 16.85937,8.88867 7.98927,7.72433 7.63031,5.68924 9.19141,52.13672 1.43918,42.82021 2.3496,60.38083 5.13672,99.00781 0.89292,12.375 1.67088,28.30827 1.72851,35.40625 0.12389,15.25725 0.4843,14.91855 -10.16992,9.58594 C 200.90812,680.32811 191.69409,668.9353 189.58594,658 c -0.37111,-1.925 -2.01133,-10.59008 -3.64453,-19.25586 -1.6332,-8.66578 -5.17671,-22.84078 -7.875,-31.5 -2.69829,-8.65922 -6.10247,-20.16638 -7.56446,-25.57226 C 155.7102,526.97742 167.29327,479.9371 189.47852,480.9668 Z M 817.87695,482 c 27.20455,0 35.03695,48.57823 17.51953,108.66211 -8.49601,29.14092 -10.42023,36.74178 -13.46875,53.1875 -4.85213,26.17554 -9.96401,35.47865 -22.96093,41.79101 -15.1644,7.36508 -14.5239,9.04212 -11.52344,-30.22265 4.83871,-63.32061 5.40371,-73.85254 6.08398,-113.41797 0.85265,-49.59171 5.07579,-60 24.34961,-60 z m -194.38476,13.57617 c -25.57094,-0.10469 -48.62523,7.17501 -53.48633,21.9043 -1.51695,4.59642 -0.8654,5.26457 2.6875,2.75586 15.36894,-10.85202 37.35589,-15.20735 33.64648,-6.66406 -6.25512,14.40643 1.12523,31.52087 14.84375,34.42187 24.29297,5.13712 39.69179,-8.97503 34.36524,-31.49414 -2.823,-11.93482 14.75576,-6.50556 32.73242,10.10938 18.15752,16.78211 21.57668,9.01146 3.79687,-8.62891 -14.92736,-14.81031 -43.01499,-22.29961 -68.58593,-22.4043 z m -228.41602,0.1543 c -33.69458,-0.70759 -74.90965,11.72672 -87.39648,35.03515 -5.95908,11.12347 0.47058,10.0843 12.76562,-2.0625 17.63067,-17.41808 38.86485,-25.23087 34.52539,-12.70312 -5.65304,16.31998 1.43579,30.71867 16.26758,33.03906 24.89611,3.89492 40.8998,-12.25632 33.23242,-33.53906 -2.03949,-5.66113 -1.86257,-6.5 1.36914,-6.5 8.07243,0 23.43436,5.68566 32.91016,12.18164 3.67512,2.51942 4.24914,2.67202 4.24414,1.11719 -0.0543,-17.51769 -21.71107,-26.01801 -47.91797,-26.56836 z M 775,500.24023 c 7.35331,1.39574 1.83855,144.00072 -8.11133,209.75977 -2.85584,18.87426 -9.59505,52.94169 -10.75,54.33789 -0.52894,0.63944 -2.392,6.56211 -4.13867,13.16211 -14.55292,54.98973 -40.39249,98.47109 -88.69531,149.25 -18.30625,19.24467 -18.29593,19.24079 -18.32813,7.5 l -0.0254,-8.75 -4.10547,7.5 C 618.74591,973.36202 585.99577,994.42059 531.25,1003.4707 484.60255,1011.1821 417.66628,992.80791 390.36328,964.79688 380.4368,954.61298 363,930.04035 363,926.23438 c 0,-0.54379 -0.73776,-1.60193 -1.63867,-2.34961 -1.50467,-1.24877 -1.5787,-0.64682 -0.91016,7.3789 0.90362,10.8478 1.27622,10.89368 -12.11133,-1.51367 C 304.68082,889.28756 272.79776,837.12684 256.98047,780.28711 254.71716,772.15385 251.77349,761.9 250.43945,757.5 c -2.35761,-7.77598 -7.15039,-32.80191 -9.38476,-48.99805 -0.60693,-4.39936 -1.99272,-19.92436 -3.07813,-34.5 C 236.89115,659.42631 235.55364,642.325 235.00391,636 230.75739,587.1413 229.89564,503.52575 233.625,502.28906 c 5.33337,-1.7686 9.68285,7.84002 13.8125,30.50782 13.2079,72.49864 25.96346,83.93462 99.5625,89.25976 56.17042,4.06411 90.56302,-5.52325 107.82422,-30.05664 2.5153,-3.575 5.61751,-7.78369 6.89453,-9.35156 6.8164,-8.36887 15.27888,-31.4855 18.29687,-49.98438 5.52389,-33.85877 42.87308,-32.74655 51.48243,1.53321 17.49038,69.64126 41.55325,87.85185 116.00195,87.78515 81.93767,-0.0734 102.3108,-16.50028 113.46875,-91.48242 3.2964,-22.15202 7.62093,-31.47652 14.03125,-30.25977 z m -151.875,9.39649 c 5.90959,-0.14802 10.90298,7.2446 5.80273,13.72851 C 627.32907,525.39759 625.97338,526 623,526 c -7.0434,0 -10.51768,-8.08948 -5.75,-13.38867 1.83376,-2.03819 3.90514,-2.92527 5.875,-2.97461 z M 371.51953,510 c 7.78122,0 12.00331,10.00223 6.24024,14.78516 -2.04294,1.69549 -6.86265,2.33142 -9.44532,1.24609 C 361.12557,523.01026 363.72669,510 371.51953,510 Z m 196.97656,123.39258 c -0.45018,0.40779 0.22478,1.3773 2.10157,2.83789 19.19862,14.94111 16.82297,46.71703 -3.22071,43.08398 -10.14776,-1.83934 -17.77432,0.73586 -30.46679,10.28321 -21.19622,15.94391 -41.1216,16.36924 -59.77344,1.27734 -13.05786,-10.56561 -23.74657,-14.15707 -35.60547,-11.96484 -15.76123,2.91363 -19.81208,-24.49836 -5.78711,-39.16016 3.10177,-3.24261 1.34745,-3.7238 -3.24414,-0.89062 -25.57258,15.77925 -16.43106,54.71654 12.33594,52.54492 8.77109,-0.66213 17.16406,1.5809 17.16406,4.58593 0,3.861 27.39051,17.96726 37.5,19.3125 14.71981,1.95872 30.41369,-3.04127 45.41211,-14.46679 12.73797,-9.70355 13.51356,-10.04631 21.15625,-9.34961 31.33745,2.85671 37.63724,-48.4056 7.07422,-57.5625 -2.62199,-0.78557 -4.1963,-0.93904 -4.64649,-0.53125 z m -192.5039,118.95898 c -0.80937,0.19105 -1.35484,0.57035 -1.9375,1.09766 -4.51455,4.08562 -2.7504,9.06834 5.86133,16.55859 3.38733,2.94621 7.74387,7.56449 9.68164,10.26172 22.27054,30.99897 57.93999,49.94692 100.90234,53.60352 56.5135,4.80995 100.29587,-11.9932 128.48828,-49.3125 3.76486,-4.98368 9.12834,-11.28838 11.91797,-14.01172 12.8285,-12.52367 8.18061,-19.86146 -9.61523,-15.18164 -76.00236,19.98656 -149.72638,20.48632 -222.79102,1.50976 -15.27928,-3.96837 -20.0797,-5.09853 -22.50781,-4.52539 z m 35.96289,19.20899 c 1.9119,0.20591 4.46597,0.72342 7.75586,1.49218 56.12687,13.11533 111.43408,13.56772 169.28906,1.38086 16.67514,-3.51253 17.92097,-3.03376 13.87305,5.32813 -8.43403,17.42239 -30.89364,30.3524 -63.87305,36.77344 -50.56491,9.84492 -115.36291,-8.54136 -129.4043,-36.71875 -3.32841,-6.67926 -3.37632,-8.87361 2.35938,-8.25586 z m 317.36523,116.15429 c 2.23893,0.64998 6.47985,6.13064 15.33008,17.19922 12.10245,15.136 12.4233,15.66794 17.76953,29.5 38.81691,100.42914 36.64013,86.59504 15.80078,100.43944 -19.97282,13.2688 -17.90315,13.1202 -32.25781,2.3242 -6.34527,-4.7723 -18.12551,-13.5291 -26.17773,-19.4589 -17.69006,-13.0277 -16.47536,-8.4424 -9.55274,-36.07036 9.42677,-37.6219 13.2624,-57.59944 15.76953,-82.14844 0.84302,-8.25455 1.07943,-12.43514 3.31836,-11.78516 z" />
      <rect
         style="fill:none;fill-opacity:1;stroke-width:0.886058"
         id="rect28"
         width="1019.7733"
         height="1019.7733"
         x="1.6907616"
         y="27.052155" />
    </g>
  </g>
</svg>
